<?xml version="1.0" standalone="no"?><!DOCTYPE svg PUBLIC "-//W3C//DTD SVG 1.1//EN" "http://www.w3.org/Graphics/SVG/1.1/DTD/svg11.dtd"><svg class="icon" width="200px" height="200.00px" viewBox="0 0 1024 1024" version="1.1" xmlns="http://www.w3.org/2000/svg"><path fill="#000000" d="M863.6 941H95.2c-8.2 0-15.6-5-18.6-12.6-18.6-46.8-16-110.4 6.4-154.4 33.2-65.2 109.2-81.2 150.2-89.8l1.6-0.4c8.6-1.8 83.6-19.2 79.8-73.8-1.6-23-18.2-45-35.8-68.2-20.4-27-43.4-57.4-48.4-96.6-0.6-4.6-1.6-10.6-2.6-17.6C218 366 195.4 221.4 271.4 127c42-52.2 107.4-81.2 194.2-86.4h0.2c40.6-2 95.2 18 113.8 53.8 1.4 1.6 6.8 2.4 15 3.8 4 0.6 8.4 1.4 13.4 2.4 27.4 5.6 99.8 49.4 107 183 0.8 16 1.8 30 2.4 42.4 5.2 85.4 6.2 103-32.2 163.4-5.2 8.2-10.4 16-15.2 23.4-33.6 51.2-49.2 77.2-40.2 107.6 9.6 32 33.2 55.6 121 74.6 93.6 20.4 124 67.4 133.8 93.4 8.6 23.2 16.8 88-2.4 139.6-2.8 7.8-10.2 13-18.6 13z m-754-40h739.4c10.2-39.6 3.6-84.8-1.6-98.6-5.6-15-27-51.4-104.8-68.4-77-16.8-132.2-40.6-150.8-102.2-15-49.8 11.4-90 45-141.2 4.8-7.4 9.8-15 15-23 31.6-49.2 31.2-56 26-139.4-0.8-12.4-1.6-26.6-2.4-42.8-6-109.4-61-142.8-75.4-145.6-4-0.8-7.8-1.4-11.4-2-15-2.4-32.2-5-43-22.4-0.4-0.6-0.6-1.2-1-1.8-8.8-18-46.8-34.2-76.8-32.8-75.2 4.4-130.8 28.6-165.4 71.4-65 80.6-44 212.8-35.2 269.2 1.2 7.2 2.2 13.6 2.8 18.6 3.8 28.8 21.6 52.6 40.6 77.8 20.2 27 41.2 54.8 43.6 89.6 2.2 32.6-11.4 61.4-39.6 83.4-27 21.2-59.4 29.6-72 32.2l-1.6 0.4c-36.8 7.8-98.2 20.6-122.6 68.8-15.2 30.2-18.4 74-8.8 108.8z"  /><path fill="#000000" d="M487.8 600h-17.4c-7.2 0-11.6 3.2-16 8.6-14.6 16.8-14.2 28.8-11.6 36.2 2.6 7.4 17.6 27.4 17.6 27.4-2.2 9.4-19.4 154.4-12.2 165.8 7.2 11.4 31 37.8 31 37.8s23.6-26.4 31-37.8c7.2-11.4-10-156.2-12.2-165.8 0 0 15-20 17.6-27.4 2.6-7.4 2.8-19.6-11.6-36.2-4.6-5.4-8.8-8.6-16.2-8.6z"  /></svg>