<?xml version="1.0" standalone="no"?><!DOCTYPE svg PUBLIC "-//W3C//DTD SVG 1.1//EN" "http://www.w3.org/Graphics/SVG/1.1/DTD/svg11.dtd"><svg class="icon" width="200px" height="200.00px" viewBox="0 0 1024 1024" version="1.1" xmlns="http://www.w3.org/2000/svg"><path fill="#000000" d="M943.6 292.3a31.86 31.86 0 0 0-36.7 3.7L712.7 464.3 539.9 176c-5.8-9.6-16.2-15.5-27.4-15.6-11.2 0-21.6 5.9-27.4 15.5L311.4 464.2l-192.6-168c-10.2-8.9-24.9-10.4-36.7-3.8-11.8 6.6-18.2 20-15.9 33.3L104.1 548c3 17.4 19.5 29.1 36.9 26.2 17.4-3 29.1-19.5 26.2-36.9l-22.8-133.8 153.7 134c7.1 6.2 16.7 9 26 7.5s17.6-7 22.4-15.1l165.9-275.4 164.9 275.3c4.9 8.1 13.1 13.7 22.4 15.2 9.3 1.5 18.9-1.2 26-7.4l154.9-134.2-75.5 428.4-586.3-0.1L192 677.1c-3-17.4-19.6-29.1-37-26.1s-29.1 19.6-26.1 37l31.4 181.1c2.7 15.3 16 26.5 31.5 26.5l640.1 0.1c15.5 0 28.8-11.2 31.5-26.4l95.8-543.6c2.5-13.3-3.8-26.7-15.6-33.4zM830.9 960H193.1c-17.7 0-32 14.3-32 32s14.3 32 32 32h637.8c17.7 0 32-14.3 32-32s-14.3-32-32-32z"  /><path fill="#000000" d="M512 64m-64 0a64 64 0 1 0 128 0 64 64 0 1 0-128 0Z"  /><path fill="#000000" d="M64 192m-64 0a64 64 0 1 0 128 0 64 64 0 1 0-128 0Z"  /><path fill="#000000" d="M960 192m-64 0a64 64 0 1 0 128 0 64 64 0 1 0-128 0Z"  /></svg>